<svg xmlns="http://www.w3.org/2000/svg" width="64" height="64" fill="none" viewBox="0 0 64 64"><circle cx="32" cy="32" r="32" fill="#1e3a8a"/><path stroke="#fff" stroke-opacity=".1" stroke-width="2" d="M32 0V64"/><path stroke="#fff" stroke-opacity=".1" stroke-width="2" d="M0 32H64"/><circle cx="32" cy="32" r="20" stroke="#fff" stroke-opacity=".1" stroke-width="2"/><path fill="#0f0" d="M21 19C23 16 29 17 28 23C27 28 22 28 21 19Z"/><path fill="#0f0" d="M34 25C38 22 48 23 48 30C48 38 38 42 32 38C29 36 30 28 34 25Z"/><path stroke="red" stroke-linecap="round" stroke-width="4" d="M26 24 C 32 20, 38 22, 40 28"/><path stroke="red" stroke-linecap="round" stroke-linejoin="round" stroke-width="4" d="M36 29 L 40 28 L 42 24"/></svg>